<svg id="Isolation_Mode" data-name="Isolation Mode" xmlns="http://www.w3.org/2000/svg" viewBox="0 0 168.73 70.34"><defs><style>.cls-1{fill:#244091;}.cls-2{fill:#9aa8ac;}.cls-3{fill:#c5203e;}</style></defs><title>SfW</title><path class="cls-1" d="M11.33,31.5C4.42,31.5,0,27.32,0,20.14A11.16,11.16,0,0,1,11.33,8.6H49.17c-1.3,4-3.06,8.12-10.7,8.12H11.78a3.44,3.44,0,0,0-3.64,3.4,3.36,3.36,0,0,0,3.64,3.28H37.84c6.92,0,11.32,4.18,11.32,11.35A11.16,11.16,0,0,1,37.84,46.28H0c1.3-4,3.06-8.11,10.7-8.11H37.39a3.35,3.35,0,1,0,0-6.68H11.33Z"/><path class="cls-1" d="M49.17,46.26h8.14V34.91A3.44,3.44,0,0,1,61,31.51H94.44V23.4H60.5A11.16,11.16,0,0,0,49.18,35v11.3Z"/><path class="cls-1" d="M94.44,8.59H49.17c1.3,4,3.06,8.12,10.7,8.12H94.44V8.59Z"/><path class="cls-2" d="M153,42.47a2.4,2.4,0,0,1-1.37,3.08l-0.17.06a2.4,2.4,0,0,1-3.09-1.37L133.75,7.46a2.39,2.39,0,0,1,1.37-3.08l0.17-.07a2.39,2.39,0,0,1,3.08,1.37Z"/><path class="cls-2" d="M117.37,39.25a2.39,2.39,0,0,0,1.14,3.18l0.17,0.08a2.39,2.39,0,0,0,3.17-1.14L138.31,7.56a2.39,2.39,0,0,0-1.14-3.17L137,4.3a2.4,2.4,0,0,0-3.18,1.14Z"/><path class="cls-2" d="M122,39.45L110.67,6.21a6.67,6.67,0,0,0-.79-1.6h0a6.68,6.68,0,0,0-1.4-1.5l0,0L108,2.79l0,0A7.06,7.06,0,0,0,106.55,2l-0.06,0-0.12,0-0.16,0-0.45-.11h0l-0.35-.06h-0.14a6.08,6.08,0,0,0-2.11,3.35l0.15,0,0.11,0,0.16,0.06,0.1,0,0.16,0.07,0.09,0,0.17,0.08,0.06,0a3.48,3.48,0,0,1,.59.42h0a4.61,4.61,0,0,1,1.07,1.51l11.47,33.64a2.39,2.39,0,0,0,3,1.49l0.17-.06a2.39,2.39,0,0,0,1.49-3"/><path class="cls-3" d="M124.53,8.38l-0.17-.06a2.39,2.39,0,0,0-3.08,1.37L112,33.84l-8.51-25A5.88,5.88,0,0,1,103.19,8l-0.06-.17A4.25,4.25,0,0,1,103,6.67a6.13,6.13,0,0,1,.16-1.58,6.06,6.06,0,0,1,2.11-3.35l-0.39,0h-0.31a10.44,10.44,0,0,0-1.27.07h-0.07l-0.66.11c-5.12,1.05-4.7,6.41-4,8l11,32a2.51,2.51,0,0,0,4.64.08L125.9,11.46a2.39,2.39,0,0,0-1.37-3.08"/><path class="cls-3" d="M140.64,48a2.39,2.39,0,0,1-1.36,3.08l-0.17.07A2.39,2.39,0,0,1,136,49.8L121.27,11.51a2.39,2.39,0,0,1,1.37-3.08l0.17-.07a2.39,2.39,0,0,1,3.08,1.37Z"/><path class="cls-2" d="M168.2,4.27c-4.76-3.17-6.89-.61-7.64.79a2,2,0,0,1,1.72-.83,2,2,0,0,1,1.2.69h0L163.54,5a2.11,2.11,0,0,1,.3.73l0,0.11V6c0,0.1,0,.2,0,0.29v0a3.71,3.71,0,0,1,0,.41c0,0.16-.09.32-0.15,0.47l0,0.06v0L160.42,15h0l-12,27.41a2.4,2.4,0,0,0,1.2,3.15l0.17,0.07a2.39,2.39,0,0,0,3.15-1.19l9.57-21.92,6-14a6.87,6.87,0,0,0-.33-4.31"/><path class="cls-3" d="M168.2,4.27A6.92,6.92,0,0,0,164.71.62a4.85,4.85,0,0,0-1-.35A6.38,6.38,0,0,0,162.21,0a5.72,5.72,0,0,0-.92,0h0a6.62,6.62,0,0,0-1,.17l-0.15,0-0.15,0a6.71,6.71,0,0,0-3.56,2.45A7,7,0,0,0,155.65,4L136.06,48a2.39,2.39,0,0,0,1.2,3.15l0.17,0.08A2.39,2.39,0,0,0,140.58,50L160.27,5.55a2.4,2.4,0,0,1,.29-0.48c0.75-1.4,2.88-4,7.64-.79"/><path class="cls-1" d="M163.7,61.39a2.3,2.3,0,0,0-.58-0.87,2.89,2.89,0,0,0-.95-0.59,3.6,3.6,0,0,0-1.29-.21H154.7a3.22,3.22,0,0,0-1.23.22A2.46,2.46,0,0,0,152,61.4a3,3,0,0,0-.18,1v7.89H154V66.88h7.74v3.46h2.15V62.42a2.79,2.79,0,0,0-.19-1m-2,1.41v1.89H154V62.8a0.67,0.67,0,0,1,.78-0.79h6.07a0.73,0.73,0,0,1,.89.79"/><polygon class="cls-1" points="123.04 66.2 132.67 66.2 132.67 63.87 123.04 63.87 123.04 62.01 132.67 62.01 132.67 59.73 121.04 59.73 121.04 70.34 132.67 70.34 132.67 68.07 123.04 68.07 123.04 66.2"/><path class="cls-1" d="M90,67.9a2.45,2.45,0,0,1-.89-0.55,2.6,2.6,0,0,1-.6-0.94A3.81,3.81,0,0,1,88.27,65a3.7,3.7,0,0,1,.23-1.36,2.66,2.66,0,0,1,.61-0.94A2.35,2.35,0,0,1,90,62.19,3.44,3.44,0,0,1,91.1,62h7V59.73H90.94a5.39,5.39,0,0,0-1.86.32,4.32,4.32,0,0,0-1.55,1,4.74,4.74,0,0,0-1.06,1.66,7.17,7.17,0,0,0,0,4.67A4.78,4.78,0,0,0,87.53,69a4.31,4.31,0,0,0,1.55,1,5.47,5.47,0,0,0,1.86.32h7.21V68.08h-7A3.37,3.37,0,0,1,90,67.9"/><polygon class="cls-1" points="115.59 59.73 115.59 59.73 115.5 59.73 115.5 67.65 108.25 59.73 105.64 59.73 105.64 70.34 107.62 70.34 107.72 70.34 107.72 62.31 114.97 70.27 115.03 70.34 117.59 70.34 117.59 59.73 115.59 59.73"/><polygon class="cls-1" points="147.19 59.73 147.19 59.73 142.61 67.55 137.79 59.73 135.7 59.73 135.7 70.31 135.7 70.34 137.79 70.34 137.79 63.91 141.88 70.34 143.32 70.34 147.19 63.96 147.19 70.34 149.27 70.34 149.27 70.31 149.27 59.73 147.19 59.73"/><rect class="cls-1" x="100.72" y="59.73" width="2.08" height="10.61"/><polygon class="cls-1" points="12.39 67.4 9.99 59.73 7.83 59.73 5.45 67.4 2.76 59.73 0.36 59.73 4.1 70.34 6.77 70.34 8.93 63.66 11.14 70.34 13.63 70.34 17.38 59.73 15.07 59.73 12.39 67.4"/><polygon class="cls-1" points="50.55 59.73 48.56 59.73 48.56 70.34 60.06 70.34 60.06 68.07 50.55 68.07 50.55 59.73"/><path class="cls-1" d="M29.17,61.14a4.3,4.3,0,0,0-1.54-1.06,5,5,0,0,0-1.93-.36h-2.9a5.11,5.11,0,0,0-1.94.36,4.37,4.37,0,0,0-1.55,1.06,4.91,4.91,0,0,0-1,1.68,7,7,0,0,0,0,4.43,4.94,4.94,0,0,0,1,1.67,4.36,4.36,0,0,0,1.55,1,5.14,5.14,0,0,0,1.94.36h2.9A5.08,5.08,0,0,0,27.63,70a4.32,4.32,0,0,0,1.54-1,4.81,4.81,0,0,0,1-1.67,7.11,7.11,0,0,0,0-4.43,4.83,4.83,0,0,0-1-1.68M28.4,65a3.76,3.76,0,0,1-.23,1.4,2.51,2.51,0,0,1-.62.92,2.55,2.55,0,0,1-.93.53,3.89,3.89,0,0,1-1.15.17H22.94a4,4,0,0,1-1.17-.17,2.62,2.62,0,0,1-.93-0.53,2.43,2.43,0,0,1-.63-0.92,4.27,4.27,0,0,1,0-2.8,2.55,2.55,0,0,1,.63-0.94,2.62,2.62,0,0,1,.94-0.55A3.71,3.71,0,0,1,22.94,62h2.52a3.69,3.69,0,0,1,1.15.18,2.56,2.56,0,0,1,.93.54,2.65,2.65,0,0,1,.63.94A3.79,3.79,0,0,1,28.4,65"/><path class="cls-1" d="M42.11,66.85c1.83-.28,2.76-1.45,2.76-3.52h0v0c0-2.38-1.23-3.58-3.65-3.58H32.75V70.34h2.09V66.92h4.83l3,3.42h2.61Zm-7.27-2.22V62h6.31a2.13,2.13,0,0,1,1.21.28,1.14,1.14,0,0,1,.4,1,1.23,1.23,0,0,1-.4,1,2,2,0,0,1-1.21.3H34.84Z"/><path class="cls-1" d="M73.95,62.83a5.16,5.16,0,0,0-1.06-1.67,4.53,4.53,0,0,0-1.54-1.07,4.75,4.75,0,0,0-1.86-.37h-7.2V70.34h7.2A4.78,4.78,0,0,0,71.35,70a4.57,4.57,0,0,0,1.54-1.07,5.1,5.1,0,0,0,1.06-1.67,6.49,6.49,0,0,0,0-4.4m-2,3.59a2.55,2.55,0,0,1-.6.94,2.29,2.29,0,0,1-.89.54,3.49,3.49,0,0,1-1.13.18H64.36V62h4.95a3.41,3.41,0,0,1,1.11.18,2.48,2.48,0,0,1,.9.54,2.6,2.6,0,0,1,.61.93A3.73,3.73,0,0,1,72.16,65a3.84,3.84,0,0,1-.23,1.39"/></svg>