<svg id="Layer_1" data-name="Layer 1" xmlns="http://www.w3.org/2000/svg" viewBox="0 0 168.3 76.94"><defs><style>.cls-1{fill:#244091;}.cls-2{fill:#c99c28;}.cls-3{fill:#8c6619;}</style></defs><title>SfX</title><path class="cls-1" d="M152.4,67.73a2.42,2.42,0,0,0-.65-0.89,3.23,3.23,0,0,0-1.06-.6,4.38,4.38,0,0,0-1.45-.22h-7a4,4,0,0,0-1.39.22,2.91,2.91,0,0,0-1,.61,2.63,2.63,0,0,0-.62.89,2.85,2.85,0,0,0-.2,1.07v8.11h2.44V73.39h8.71v3.55h2.42V68.8a2.67,2.67,0,0,0-.21-1.06m-2.21,1.45v1.94h-8.71V69.19a0.73,0.73,0,0,1,.88-0.82h6.83c0.88,0,1,.44,1,0.82"/><polygon class="cls-1" points="80.57 72.68 91.42 72.68 91.42 70.28 80.57 70.28 80.57 68.37 91.42 68.37 91.42 66.02 78.33 66.02 78.33 76.94 91.42 76.94 91.42 74.6 80.57 74.6 80.57 72.68"/><path class="cls-1" d="M4.82,74.43a2.74,2.74,0,0,1-1-.57,2.65,2.65,0,0,1-.68-1,3.63,3.63,0,0,1-.25-1.42,3.49,3.49,0,0,1,.26-1.41,2.73,2.73,0,0,1,.68-1,2.7,2.7,0,0,1,1-.56,4.16,4.16,0,0,1,1.25-.18h7.8V66h-8a6.5,6.5,0,0,0-2.09.33A4.73,4.73,0,0,0,.86,69.08a6.76,6.76,0,0,0,0,4.8,4.93,4.93,0,0,0,1.2,1.71,4.86,4.86,0,0,0,1.75,1,6.58,6.58,0,0,0,2.09.33H14V74.62H6.07a4,4,0,0,1-1.26-.19"/><polygon class="cls-1" points="59.91 66.02 59.91 66.02 59.81 66.02 59.81 74.18 51.64 66.02 48.7 66.02 48.7 76.94 50.93 76.94 51.05 76.94 51.05 68.68 59.2 76.87 59.28 76.94 62.16 76.94 62.16 66.02 59.91 66.02"/><polygon class="cls-1" points="120.53 66.02 120.53 66.02 115.37 74.08 109.94 66.02 107.59 66.02 107.59 76.91 107.59 76.94 109.94 76.94 109.94 70.33 114.56 76.94 116.18 76.94 120.53 70.38 120.53 76.94 122.88 76.94 122.88 76.91 122.88 66.02 120.53 66.02"/><rect class="cls-1" x="30.18" y="66.02" width="2.35" height="10.92"/><path class="cls-1" d="M11.28,38.8C4.39,38.8,0,34.65,0,27.51A11.11,11.11,0,0,1,11.28,16H48.93c-1.29,4-3,8.07-10.65,8.07H11.72A3.43,3.43,0,0,0,8.1,27.47a3.34,3.34,0,0,0,3.62,3.27H37.66c6.88,0,11.27,4.16,11.27,11.29a11.11,11.11,0,0,1-11.27,11.5H0c1.29-4,3-8.07,10.65-8.07H37.21a3.34,3.34,0,1,0,0-6.65H11.28Z"/><path class="cls-1" d="M48.93,53.49H57V42.2a3.43,3.43,0,0,1,3.62-3.38H94V30.75H60.21A11.11,11.11,0,0,0,48.94,42.25V53.49Z"/><path class="cls-1" d="M94,16h-45c1.29,4,3,8.07,10.64,8.07H94V16Z"/><path class="cls-2" d="M146.52,52.09c15.63,4.57,14.72,2.27,14.72,2.27-9.32-3.66-28.72-16.29-34-21h-11c1.43,1.36,14,12.66,30.3,18.72"/><polygon class="cls-2" points="120.71 26.42 107.82 16.07 96.95 16.07 115.28 31.41 120.71 26.42"/><polygon class="cls-2" points="115.37 34.14 94.23 53.48 105.1 53.48 120.91 38.69 115.37 34.14"/><path class="cls-3" d="M143.42,16.58S155.8,5.87,167.39,1l0.07,0c0.58-.35,1.24-1.1.55-1a52.14,52.14,0,0,0-10.62,3,95,95,0,0,0-16.57,8.73,157.88,157.88,0,0,0-24.6,20.48h11c4.71-4.72,9.57-10,14.64-14.33l1.53-1.28h0Z"/></svg>