<svg id="Isolation_Mode" data-name="Isolation Mode" xmlns="http://www.w3.org/2000/svg" viewBox="0 0 135.28 34.87"><defs><style>.cls-1{fill:#1c252d;}</style></defs><title>emprive</title><path class="cls-1" d="M27.17,29.91a2.75,2.75,0,0,0-1.75-.74,2.33,2.33,0,0,0-2.28,2.52,2.31,2.31,0,0,0,2.28,2.5,2.86,2.86,0,0,0,1.78-.71c0.15,0.2.28,0.33,0.43,0.54a3,3,0,0,1-2.2.85,3,3,0,0,1-3-3.18,3,3,0,0,1,3-3.16,2.84,2.84,0,0,1,2.21.92Z"/><rect class="cls-1" x="35.91" y="28.63" width="0.74" height="6.16"/><polygon class="cls-1" points="45.27 34.78 45.27 28.6 45.36 28.57 49.48 33.02 49.48 28.62 50.23 28.62 50.23 34.79 50.15 34.81 46.03 30.38 46.03 34.78 45.27 34.78"/><polygon class="cls-1" points="59.6 32.05 59.6 34.14 62.83 34.14 62.83 34.77 58.85 34.77 58.85 28.61 62.83 28.61 62.83 29.24 59.6 29.24 59.6 31.42 62.13 31.41 62.13 32.05 59.6 32.05"/><path class="cls-1" d="M75.55,29.88a2.79,2.79,0,0,0-1.76-.74,2.33,2.33,0,0,0-2.27,2.52,2.32,2.32,0,0,0,2.28,2.51,2.85,2.85,0,0,0,1.78-.71c0.15,0.2.28,0.34,0.43,0.54a3,3,0,0,1-2.2.85,3,3,0,0,1-3-3.18,3,3,0,0,1,3-3.16,2.85,2.85,0,0,1,2.22.92Z"/><polygon class="cls-1" points="85.03 34.12 87.45 34.12 87.45 34.76 84.28 34.76 84.27 28.6 85.02 28.59 85.03 34.12"/><path class="cls-1" d="M99.27,32.42V28.59H100v3.83a2.37,2.37,0,1,1-4.75,0V28.59H96v3.84a1.63,1.63,0,1,0,3.26,0"/><path class="cls-1" d="M112.17,31.66a1.56,1.56,0,0,1,.76,1.37c0,0.72-.48,1.71-2.1,1.71h-2.26V28.58h2.26c1.62,0,2.1,1,2.1,1.71a1.59,1.59,0,0,1-.76,1.35v0Zm-1.22-.29a1.08,1.08,0,0,0,1.21-1.08,1.12,1.12,0,0,0-1.25-1.09H109.3v2.17h1.65Zm0,2.73A1.1,1.1,0,0,0,112.16,33a1,1,0,0,0-1.22-1H109.3V34.1h1.61Z"/><polygon class="cls-1" points="40.92 19.79 40.91 7.03 34.01 19.79 31.81 19.8 24.89 7.03 24.9 19.8 23.03 19.8 23.02 4.13 25.43 4.13 32.91 17.93 40.37 4.12 42.77 4.12 42.78 19.79 40.92 19.79"/><rect class="cls-1" x="92.39" y="4.09" width="1.87" height="15.67"/><polygon class="cls-1" points="100.86 19.75 100.85 4.08 102.71 4.08 102.72 17.71 114.14 4.08 116.58 4.07 103.44 19.75 100.86 19.75"/><path class="cls-1" d="M7.63,19.81a7.8,7.8,0,0,1-5.54-2.29A7.64,7.64,0,0,1,0,12,7.62,7.62,0,0,1,2.08,6.45a7.78,7.78,0,0,1,5.54-2.3H17.2V6H7.62A4.93,4.93,0,0,0,7,6a6,6,0,0,0-.86.15,5.85,5.85,0,0,0-.84.28A6,6,0,0,0,3.4,7.76,5.74,5.74,0,0,0,1.87,12a5.74,5.74,0,0,0,1.52,4.2,6,6,0,0,0,4.22,1.76H17.2v1.87H7.63ZM2.85,12.92l1.85-1.85,10.76,0v1.86H2.85Z"/><path class="cls-1" d="M125.7,19.74a7.79,7.79,0,0,1-5.54-2.29,7.63,7.63,0,0,1-2.08-5.54,7.64,7.64,0,0,1,2.07-5.54,7.8,7.8,0,0,1,5.54-2.3h9.58V5.93h-9.58a5.16,5.16,0,0,0-.61,0,6.14,6.14,0,0,0-.86.15,5.9,5.9,0,0,0-.84.28,6,6,0,0,0-1.91,1.29,5.74,5.74,0,0,0-1.53,4.22,5.75,5.75,0,0,0,1.52,4.2,5.92,5.92,0,0,0,4.22,1.76h9.59v1.86H125.7Zm-4.78-6.9L122.77,11l10.76,0v1.87H120.92Z"/><path class="cls-1" d="M83.86,19.76L79.56,14l-7.16,0,1.84-1.85,7.31,0a3.26,3.26,0,0,0,.63-0.06l0.19,0,0.12,0,0.1,0,0.18-.07L83,11.82l0.21-.13,0.09,0,0-.05,0.2-.16a2,2,0,0,0,.26-0.23,3,3,0,0,0,.8-2.2,3,3,0,0,0-.8-2.2l-0.22-.2A3.08,3.08,0,0,0,83,6.34l0-.09L83,6.3l-0.2-.09,0-.08,0,0.06L82.47,6.1l0-.07,0,0.06L82.18,6,82.1,6V6L81.87,6H81.62L81.55,5.9V6H71.64v13.8H69.78V4.1H81.61a5,5,0,0,1,3.45,1.45,4.85,4.85,0,0,1,1.36,3.52,4.83,4.83,0,0,1-1.35,3.52,5,5,0,0,1-3,1.43l4.29,5.73H83.86Z"/><path class="cls-1" d="M48.61,19.78V4.12H60.16a5,5,0,0,1,3.52,1.46A4.86,4.86,0,0,1,65,9.09a4.84,4.84,0,0,1-1.35,3.52,4.93,4.93,0,0,1-3.52,1.46H51l1.84-1.84,7.31,0,0.24,0a3.1,3.1,0,0,0,2-.9,3,3,0,0,0,.8-2.2,3,3,0,0,0-.81-2.2,3.1,3.1,0,0,0-2-.9H50.46v13.8H48.61Z"/><polygon class="cls-1" points="128.92 0 132.02 0 127.9 2.39 125.51 2.39 128.92 0"/></svg>