<svg id="Layer_1" data-name="Layer 1" xmlns="http://www.w3.org/2000/svg" viewBox="0 0 31.89 27.9"><defs><style>.cls-1{fill:#fff;}</style></defs><title>twitter</title><path class="cls-1" d="M31.89,3.3a12.13,12.13,0,0,1-3.76,1.11A7,7,0,0,0,31,.52a13.12,13.12,0,0,1-4.16,1.71A6.31,6.31,0,0,0,22.07,0a6.8,6.8,0,0,0-6.54,7,7.71,7.71,0,0,0,.17,1.6A18.16,18.16,0,0,1,2.22,1.29a7.43,7.43,0,0,0-.88,3.54,7.15,7.15,0,0,0,2.91,5.85,6.18,6.18,0,0,1-3-.88V9.9a7,7,0,0,0,5.25,6.91A6.16,6.16,0,0,1,4.8,17a5.19,5.19,0,0,1-1.22-.12,6.59,6.59,0,0,0,6.11,4.89,12.5,12.5,0,0,1-8.12,3A11.94,11.94,0,0,1,0,24.72,17.5,17.5,0,0,0,10,27.9c12,0,18.61-10.73,18.61-20,0-.3,0-0.6,0-0.9A14.26,14.26,0,0,0,31.89,3.3Z"/></svg>