<?xml version="1.0" encoding="utf-8"?>
<!-- Generator: Adobe Illustrator 16.0.0, SVG Export Plug-In . SVG Version: 6.00 Build 0)  -->
<!DOCTYPE svg PUBLIC "-//W3C//DTD SVG 1.1//EN" "http://www.w3.org/Graphics/SVG/1.1/DTD/svg11.dtd">
<svg version="1.1" id="Layer_1" xmlns="http://www.w3.org/2000/svg" xmlns:xlink="http://www.w3.org/1999/xlink" x="0px" y="0px"
	 width="612px" height="612px" viewBox="0 0 612 612" enable-background="new 0 0 612 612" xml:space="preserve">
<title>icon-instagram-3</title>
<path fill="#FFFFFF" d="M204.006,305.924c0.037-56.334,45.736-101.973,102.07-101.935c56.335,0.038,101.973,45.735,101.936,102.069
	c-0.038,56.334-45.735,101.973-102.07,101.936c-0.006,0-0.012,0-0.018,0l0,0C249.596,407.947,203.968,362.252,204.006,305.924
	 M148.872,305.924c0,86.812,70.375,157.188,157.188,157.188s157.188-70.375,157.188-157.188
	c0-86.812-70.376-157.188-157.188-157.188S148.872,219.111,148.872,305.924 M432.688,142.652
	c-0.01,20.284,16.427,36.735,36.711,36.745c20.284,0.009,36.734-16.427,36.744-36.711c0.011-20.284-16.427-36.735-36.711-36.745l0,0
	l0,0C449.148,105.932,432.697,122.368,432.688,142.652 M182.422,555.058c-29.832-1.353-46.041-6.32-56.807-10.529
	c-13.293-4.909-25.318-12.734-35.19-22.901c-10.167-9.866-17.992-21.885-22.902-35.173c-4.191-10.783-9.178-27.043-10.53-56.824
	c-1.471-32.266-1.792-41.95-1.792-123.653c0-81.705,0.321-91.39,1.792-123.654c1.369-29.832,6.338-46.023,10.53-56.807
	c4.891-13.282,12.693-25.3,22.834-35.173c9.869-10.166,21.895-17.987,35.19-22.885c10.783-4.192,27.043-9.178,56.807-10.547
	c32.299-1.471,41.95-1.69,123.569-1.69c81.619,0,91.39,0.304,123.654,1.792c29.832,1.369,46.022,6.355,56.808,10.547
	c13.293,4.901,25.318,12.722,35.189,22.885c10.163,9.872,17.982,21.896,22.885,35.19c4.192,10.783,9.178,27.043,10.547,56.807
	c1.471,32.266,1.69,41.95,1.69,123.655c0,81.703-0.306,91.389-1.69,123.653c-1.369,29.832-6.354,46.041-10.547,56.824
	c-10.303,26.682-31.393,47.771-58.074,58.075c-10.784,4.19-27.043,9.178-56.808,10.528c-32.267,1.487-41.95,1.792-123.654,1.792
	c-81.704,0-91.388-0.305-123.637-1.792 M179.836,1.842c-32.57,1.538-54.762,6.609-74.267,14.214
	C85.146,23.74,66.648,35.79,51.364,51.364C35.795,66.641,23.75,85.135,16.073,105.552C8.451,125.074,3.38,147.266,1.859,179.836
	C0.338,212.406,0,222.885,0,305.924s0.355,93.52,1.859,126.155c1.504,32.638,6.592,54.896,14.214,74.369
	c7.675,20.417,19.72,38.911,35.291,54.187c15.282,15.564,33.774,27.607,54.188,35.292c19.521,7.571,41.714,12.743,74.368,14.231
	c32.655,1.488,43.05,1.842,126.156,1.842c83.105,0,93.535-0.354,126.173-1.842c32.637-1.488,54.812-6.66,74.368-14.215
	c41.114-15.922,73.604-48.447,89.479-89.58c7.556-19.454,12.744-41.697,14.231-74.268c1.487-32.569,1.842-43.049,1.842-126.156
	c0-83.105-0.338-93.518-1.842-126.155c-1.505-32.637-6.761-54.711-14.3-74.233c-7.685-20.418-19.729-38.916-35.291-54.204
	c-15.312-15.576-33.839-27.62-54.288-35.292C486.976,8.45,464.802,3.379,432.164,1.841S389.115,0,305.924,0
	c-83.191,0-93.518,0.355-126.155,1.842"/>
</svg>
