<svg id="Layer_1" data-name="Layer 1" xmlns="http://www.w3.org/2000/svg" viewBox="0 0 166.85 76.49"><defs><style>.cls-1{fill:#f58220;}.cls-2{fill:#8a8a8d;}.cls-3{fill:#244091;}</style></defs><title>SfC</title><path class="cls-1" d="M166.56,15.86c-0.12-.37-0.6.23-1.09,1-0.61,1-1.79,3.46-3,5.69a57.34,57.34,0,0,1-14.48,16.65C139,46,123.36,51.91,115.82,47c-7.76-5-5-14.11-.92-20.51l0-.08a43.63,43.63,0,0,1,9.41-10.79c6.95-5.84,14.53-9.09,19.9-9h0.45c0.1-.12.1-0.26-0.1-0.44-2.83-2.62-17.88-.23-32.9,14.64-9.43,9.34-14.84,21.54-8.47,31.16C108,59.21,118,59,125.4,57a62.5,62.5,0,0,0,26.88-15c6.78-6.4,12.17-15,14.36-23a4.79,4.79,0,0,0-.08-3.09"/><path class="cls-2" d="M140.85,21.23h0l-0.57.57c-0.85.93-2.17,2.79-.7,4.17,2.15,2.4,8.05,2.92,10.44.35C158.43,16,163.56,0,144.87,0A46.48,46.48,0,0,0,122.6,7.05a53.12,53.12,0,0,0-14.27,12.21A38.77,38.77,0,0,0,103.62,26c0,0.08-1.48,2.48-.87,3.75a0.91,0.91,0,0,0,.3-0.34c6.86-11.5,18-19.67,30.5-23.92,17.25-5.85,16.51,6.29,7.3,15.7"/><path class="cls-3" d="M155.11,67.12a2.49,2.49,0,0,0-.67-0.91,3.32,3.32,0,0,0-1.08-.61,4.46,4.46,0,0,0-1.47-.23H144.8a4.11,4.11,0,0,0-1.41.23,3,3,0,0,0-1,.62,2.66,2.66,0,0,0-.63.91,2.92,2.92,0,0,0-.21,1.09v8.26H144V72.88h8.86v3.61h2.47V68.21a2.77,2.77,0,0,0-.22-1.08m-2.25,1.48v2H144v-2a0.74,0.74,0,0,1,.9-0.83h7c0.9,0,1,.45,1,0.83"/><polygon class="cls-3" points="82.01 72.16 93.05 72.16 93.05 69.72 82.01 69.72 82.01 67.77 93.05 67.77 93.05 65.38 79.72 65.38 79.72 76.49 93.05 76.49 93.05 74.11 82.01 74.11 82.01 72.16"/><path class="cls-3" d="M4.91,73.93a2.7,2.7,0,0,1-1.71-1.55A3.7,3.7,0,0,1,3,70.94a3.54,3.54,0,0,1,.26-1.43,2.78,2.78,0,0,1,.7-1,2.73,2.73,0,0,1,1-.57,4.25,4.25,0,0,1,1.27-.19h7.94V65.38H6a6.62,6.62,0,0,0-2.12.34,5,5,0,0,0-1.78,1A4.91,4.91,0,0,0,.89,68.49a6.23,6.23,0,0,0-.45,2.45,6.15,6.15,0,0,0,.45,2.44,5,5,0,0,0,1.21,1.74,5,5,0,0,0,1.78,1A6.64,6.64,0,0,0,6,76.49h8.26V74.13H6.2a4.17,4.17,0,0,1-1.28-.19"/><polygon class="cls-3" points="60.98 65.38 60.98 65.38 60.88 65.38 60.88 73.68 52.57 65.38 49.57 65.38 49.57 76.49 51.84 76.49 51.96 76.49 51.96 68.09 60.27 76.42 60.34 76.49 63.27 76.49 63.27 65.38 60.98 65.38"/><polygon class="cls-3" points="122.67 65.38 122.67 65.38 117.42 73.58 111.89 65.38 109.5 65.38 109.5 76.47 109.5 76.49 111.89 76.49 111.89 69.77 116.59 76.49 118.24 76.49 122.67 69.81 122.67 76.49 125.06 76.49 125.06 76.47 125.06 65.38 122.67 65.38"/><rect class="cls-3" x="30.73" y="65.38" width="2.39" height="11.11"/><path class="cls-3" d="M11.48,37.47C4.47,37.47,0,33.24,0,26A11.3,11.3,0,0,1,11.48,14.28H49.8c-1.31,4.07-3.1,8.22-10.83,8.22h-27a3.49,3.49,0,0,0-3.69,3.44,3.4,3.4,0,0,0,3.69,3.32H38.32c7,0,11.47,4.23,11.47,11.5a11.31,11.31,0,0,1-11.47,11.7H0c1.31-4.07,3.1-8.22,10.83-8.22h27a3.4,3.4,0,1,0,0-6.77H11.48Z"/><path class="cls-3" d="M49.8,52.42H58V40.93a3.48,3.48,0,0,1,3.69-3.44H95.64V29.27H61.27A11.31,11.31,0,0,0,49.81,41V52.42Z"/><path class="cls-3" d="M95.64,14.28H49.8c1.31,4.07,3.1,8.22,10.83,8.22h35V14.28Z"/></svg>