<?xml version="1.0" encoding="utf-8"?>
<!-- Generator: Adobe Illustrator 16.0.0, SVG Export Plug-In . SVG Version: 6.00 Build 0)  -->
<!DOCTYPE svg PUBLIC "-//W3C//DTD SVG 1.1//EN" "http://www.w3.org/Graphics/SVG/1.1/DTD/svg11.dtd">
<svg version="1.1" id="ICON" xmlns="http://www.w3.org/2000/svg" xmlns:xlink="http://www.w3.org/1999/xlink" x="0px" y="0px"
	 width="35.797px" height="34.124px" viewBox="0 104.376 35.797 34.124" enable-background="new 0 104.376 35.797 34.124"
	 xml:space="preserve">
<path fill="#FFFFFF" d="M35.601,118.814c0-7.953-7.987-14.438-17.784-14.438C7.987,104.376,0,110.861,0,118.814
	c0,7.134,6.349,13.142,14.882,14.268c0.581,0.136,1.366,0.375,1.57,0.888c0.171,0.444,0.103,1.161,0.068,1.604
	c0,0-0.205,1.263-0.239,1.536c-0.068,0.444-0.342,1.741,1.536,0.956c1.912-0.785,10.24-5.905,13.995-10.343l0,0
	C34.372,124.958,35.601,122.023,35.601,118.814z M11.366,123.081c0,0.205,0,0.512-0.205,0.512H6.178l0,0
	c-0.103,0-0.171-0.137-0.239-0.171v-0.034l0.035-0.035c-0.068-0.068-0.068-0.171-0.068-0.273l0,0v-7.748
	c0-0.205,0.068-0.273,0.273-0.273h1.263c0.205,0,0.205,0.068,0.205,0.273v6.212h3.55c0.205,0,0.205,0.103,0.205,0.273v1.263H11.366z
	 M14.78,123.252c0,0.205-0.171,0.341-0.342,0.341h-1.365c-0.205,0-0.341-0.171-0.341-0.341v-7.851c0-0.205,0.171-0.341,0.341-0.341
	h1.365c0.206,0,0.342,0.17,0.342,0.341V123.252z M22.972,123.081c0,0.205,0,0.512-0.205,0.512h-1.263
	c-0.034,0-0.068-0.103-0.103-0.103v-0.034c0,0,0-0.034-0.034-0.034l0,0l0,0l0,0l0,0c0,0,0,0-0.035,0l0,0
	c-0.034-0.034-0.136-0.034-0.17-0.102l-3.652-4.847v4.608c0,0.205,0,0.512-0.171,0.512h-1.263c-0.206,0-0.273-0.307-0.273-0.512
	v-7.748c0-0.205,0.103-0.273,0.273-0.273h1.263v-0.034c0,0,0-0.034,0.034-0.034c0,0,0,0,0.035,0l0,0c0,0,0,0,0.034,0l0,0
	c0,0,0,0,0.034,0l0,0c0,0,0,0,0.035,0l0,0c0,0,0,0,0.034,0l0,0c0,0,0,0,0.034,0l0,0c0,0,0,0,0.034,0l0,0c0,0,0,0,0.034,0.034l0,0
	l0.068,0.034l3.618,4.813v-4.54c0-0.205,0.068-0.273,0.239-0.273h1.263c0.205,0,0.205,0.068,0.205,0.273v7.748H22.972z
	 M30.14,116.562c0,0.205-0.273,0.205-0.478,0.205h-3.277v1.365h3.311c0.205,0,0.478,0.239,0.478,0.444v1.263
	c0,0.205-0.273,0.341-0.478,0.341h-3.277v1.365h3.277c0.205,0,0.478,0.103,0.478,0.273v1.263c0,0.205-0.273,0.512-0.478,0.512
	h-5.018l0,0c-0.102,0-0.17-0.137-0.239-0.171v-0.034v-0.035c-0.068-0.068-0.103-0.171-0.103-0.273l0,0v-7.748l0,0
	c0-0.103,0.034-0.171,0.103-0.239l0,0v0.034c0.068-0.068,0.137-0.068,0.239-0.068l0,0h5.018c0.205,0,0.478,0.068,0.478,0.273v1.229
	H30.14z"/>
</svg>
