<?xml version="1.0" encoding="utf-8"?>
<!-- Generator: Adobe Illustrator 16.0.0, SVG Export Plug-In . SVG Version: 6.00 Build 0)  -->
<!DOCTYPE svg PUBLIC "-//W3C//DTD SVG 1.1//EN" "http://www.w3.org/Graphics/SVG/1.1/DTD/svg11.dtd">
<svg version="1.1" id="Layer_1" xmlns="http://www.w3.org/2000/svg" xmlns:xlink="http://www.w3.org/1999/xlink" x="0px" y="0px"
	 width="117.931px" height="73.258px" viewBox="0 0 117.931 73.258" enable-background="new 0 0 117.931 73.258"
	 xml:space="preserve">
<g>
	<defs>
		<rect id="SVGID_1_" y="0" width="117.931" height="73.258"/>
	</defs>
	<clipPath id="SVGID_2_">
		<use xlink:href="#SVGID_1_"  overflow="visible"/>
	</clipPath>
	
		<path clip-path="url(#SVGID_2_)" fill="none" stroke="#434343" stroke-width="8" stroke-linecap="round" stroke-linejoin="round" stroke-miterlimit="10" d="
		M71.187,35.726c-7.79-4.497-15.583-8.992-23.374-13.489c-0.686-0.396-1.574,0.107-1.574,0.904v26.977
		c0,0.797,0.888,1.3,1.574,0.903c7.791-4.496,15.583-8.992,23.374-13.489c0.385-0.221,0.524-0.565,0.504-0.903
		C71.711,36.291,71.571,35.948,71.187,35.726z"/>
	
		<path clip-path="url(#SVGID_2_)" fill="none" stroke="#434343" stroke-width="8" stroke-linecap="round" stroke-linejoin="round" stroke-miterlimit="10" d="
		M58.965,64.717c-18.387,0-36.863,1.527-54.965,4.542V4c36.205,6.028,73.726,6.028,109.932,0v65.259
		C95.827,66.245,77.353,64.717,58.965,64.717"/>
</g>
</svg>
